<?xml version="1.0" standalone="yes"?>
<svg width="3081" height="986">
<path style="fill:#ffffff; stroke:none;" d="M0 0L0 986L3081 986L3081 0L0 0z"/>
<path style="fill:#05aa20; stroke:none;" d="M368 47L368 224C368 236.554 373.272 246.762 378.757 258C380.489 261.548 382.296 267.639 385.637 269.972C389.035 272.344 396.027 271 400 271L400 47L368 47z"/>
<path style="fill:#028574; stroke:none;" d="M400 47L400 437L400 536C400 546.164 396.238 565.409 403.189 573.62C405.789 576.691 410.22 576.988 413.715 578.576C425.74 584.037 439.227 585.836 451.83 589.416C486.179 599.172 525.635 595 561 595C584.202 595 610.181 598.236 633 594L633 271L791 271C783.264 280.182 772.038 294.041 761 299L762 302C740.981 307.512 748 340.697 748 357C748 413.698 749 470.275 749 527C760.235 526.252 777.401 522.137 787.714 517.44C791.479 515.725 793.903 512.398 798 511.105C861.333 491.11 917.687 457.702 966.242 412.319C981.257 398.286 995.797 378.907 1007.2 361.714C1011.41 355.379 1015.37 342.386 1023 340L1022 356L1064 356L1064 47L400 47z"/>
<path style="fill:#ff2806; stroke:none;" d="M368 237L368 271L385 271C382.178 261.204 375.76 243.652 368 237z"/>
<path style="fill:#08f902; stroke:none;" d="M71 271L69 712L238 712L238 768L368 768L368 788L402 788C394.581 768.63 421.687 778.069 432 779.754C470.61 786.062 509.969 785 549 785C574.27 785 599.747 784.047 624.996 785.019C629.956 785.209 633.937 787.926 639 787.996C766.552 789.771 894.365 787 1022 787L1022 341C1013.78 346.277 1008.73 360.075 1003.09 368C990.655 385.473 976.816 401.192 961.551 416.211C916.135 460.893 860.134 490.31 800.424 510.721C783.442 516.526 767.212 524.669 749 527C749 470.942 748 415.027 748 359C748 340.569 741.181 310.889 762 302L761 299C770.905 295.994 785.973 279.906 791 271L633 271L633 510L633 572C633 578.074 635.209 589.708 631.107 594.682C628.096 598.333 621.186 597 617 597L579 597C533.855 597 490.268 597.586 446 588.119C434.279 585.612 423.924 582.182 412.83 577.799C408.485 576.082 403.703 575.557 401.318 570.956C397.921 564.401 400 553.209 400 546L400 486L400 271L71 271z"/>
<path style="fill:#16355d; stroke:none;" d="M717 339L718 340L717 339z"/>
<path style="fill:#17ae36; stroke:none;" d="M1017 346L1018 346L1020 341L1022 342L1017 346z"/>
<path style="fill:#23dd4d; stroke:none;" d="M1016 346L1013 353L1014 353L1016 346z"/>
<path style="fill:#349e40; stroke:none;" d="M1011 354L1009 357L1011 354z"/>
<path style="fill:#359d3f; stroke:none;" d="M1005 363L1003 368L1004 368L1005 363z"/>
<path style="fill:#36bc53; stroke:none;" d="M1001 368L1000 372L1001 372L1003 368L1001 368z"/>
<path style="fill:#37b652; stroke:none;" d="M998 372L993 381L1000 372L998 372z"/>
<path style="fill:#16355d; stroke:none;" d="M746 382L740 386L745 390L746 382z"/>
<path style="fill:#21de4b; stroke:none;" d="M979 399L980 399L993 382C986.952 385.063 981.156 392.607 979 399z"/>
<path style="fill:#339e3e; stroke:none;" d="M971 407L972 407L979 398L971 407z"/>
<path style="fill:#2f9b3b; stroke:none;" d="M951 426L962 416L951 426z"/>
<path style="fill:#1ae543; stroke:none;" d="M940 436L952 427C947.128 426.023 942.121 432.026 940 436z"/>
<path style="fill:#339c3d; stroke:none;" d="M936 437L936 438L940 437L936 437z"/>
<path style="fill:#21df4b; stroke:none;" d="M934 441L937 438L934 441z"/>
<path style="fill:#36c755; stroke:none;" d="M929 444L934 442L929 444z"/>
<path style="fill:#2ecc53; stroke:none;" d="M925 447L929 444L925 447z"/>
<path style="fill:#2f9b3b; stroke:none;" d="M916 454L920 452L916 454z"/>
<path style="fill:#fefefe; stroke:none;" d="M1104 454L1104 512L1088 512C1088 519.978 1089.27 529.183 1087.61 537C1083.68 555.496 1075.03 571.358 1075 591C1074.98 603.809 1074.91 616.376 1077.45 629C1079.67 640.061 1085.28 650.192 1087.61 661C1089.23 668.498 1088 677.345 1088 685L1104 685L1104 712C1112.32 712 1128.72 708.763 1134.4 716.305C1138.68 721.997 1136 736.104 1136 743L1440 743L1440 737L1450 737L1450 712L1509 712C1518.55 712 1527.24 710.457 1533.68 719.001C1538.14 724.903 1536 735.948 1536 743L2560 743C2560 736.333 2556.85 718.213 2562.32 713.603C2568.3 708.567 2587.4 712 2595 712C2611.85 712 2645.89 704.843 2654.97 723C2657.64 728.333 2656 737.149 2656 743L3040 743C3040 736.586 3038.23 727.093 3040.6 721.089C3045.4 708.977 3061.87 712 3072 712L3072 655L3077 655C3079.86 639.61 3080.63 624.453 3077.92 609C3076.61 601.561 3073.09 594.442 3072.18 587C3069.59 565.636 3072 542.53 3072 521L2944 521L2944 459L2576 459L2576 454L1104 454z"/>
<path style="fill:#2ecc54; stroke:none;" d="M903 463L908 461L903 463z"/>
<path style="fill:#30cf54; stroke:none;" d="M896 466L896 467L900 466L896 466z"/>
<path style="fill:#36bc53; stroke:none;" d="M891 470L896 468L891 470z"/>
<path style="fill:#3bae4e; stroke:none;" d="M886 473L889 471L886 473z"/>
<path style="fill:#23a138; stroke:none;" d="M876 479L879 478L876 479z"/>
<path style="fill:#34c855; stroke:none;" d="M867 484L876 480C872.233 478.956 868.962 480.757 867 484z"/>
<path style="fill:#29d651; stroke:none;" d="M862 485L862 486L866 485L862 485z"/>
<path style="fill:#37b852; stroke:none;" d="M857 487L857 488L862 487L857 487z"/>
<path style="fill:#1fe149; stroke:none;" d="M851 490L851 491L856 490L851 490z"/>
<path style="fill:#25db4f; stroke:none;" d="M847 492L847 493L851 492L847 492z"/>
<path style="fill:#3bb250; stroke:none;" d="M838 496L838 497L842 496L838 496z"/>
<path style="fill:#22a137; stroke:none;" d="M822 502L822 503L828 502L822 502z"/>
<path style="fill:#3aa347; stroke:none;" d="M808 507L808 508L822 504L808 507z"/>
<path style="fill:#24dc4e; stroke:none;" d="M804 509L804 510L808 509L804 509z"/>
<path style="fill:#2d9b39; stroke:none;" d="M794 512L794 513L800 512L794 512z"/>
<path style="fill:#28d852; stroke:none;" d="M791 515L794 513L791 515z"/>
<path style="fill:#2a9b38; stroke:none;" d="M401 570L402 574L403 574L401 570z"/>
<path style="fill:#329e40; stroke:none;" d="M420 581L420 582L424 582L420 581z"/>
<path style="fill:#37c455; stroke:none;" d="M426 583L426 584L435 586L426 583z"/>
<path style="fill:#1fa537; stroke:none;" d="M450 589L450 590L454 590L450 589z"/>
<path style="fill:#1aaa37; stroke:none;" d="M460 591L460 592L464 592L460 591z"/>
<path style="fill:#0fb735; stroke:none;" d="M464 592L464 593L472 594L464 592z"/>
<path style="fill:#3aa648; stroke:none;" d="M472 593L472 594L490 595L472 593z"/>
<path style="fill:#12865e; stroke:none;" d="M504 595L504 596L590 596L632 595L592 595L504 595z"/>
<path style="fill:#38ab4c; stroke:none;" d="M490 595L490 596L504 596L490 595z"/>
<path style="fill:#14ec39; stroke:none;" d="M504 596L504 597L631 597C620.972 592.792 603.896 596 593 596L504 596z"/>
<path style="fill:#1fe049; stroke:none;" d="M402 775L402 776L413 777L402 775z"/>
<path style="fill:#028574; stroke:none;" d="M402 786L402 787L402 788C396.246 793.028 400 816.376 400 824L400 931L633 931L633 825L633 798C633 795.135 633.912 790.14 631.972 787.742C629.305 784.445 620.75 786 617 786L576 786C529.486 786 482.087 787.912 436 781.271C425.983 779.827 415.125 776.368 405.044 776.229C399.699 776.156 398.521 782.959 402 786z"/>
<path style="fill:#32a042; stroke:none;" d="M412 777L412 778L418 778L412 777z"/>
<path style="fill:#39a84b; stroke:none;" d="M418 778L418 779L424 779L418 778z"/>
<path style="fill:#31cb55; stroke:none;" d="M424 779L424 780L437 781L424 779z"/>
<path style="fill:#12b336; stroke:none;" d="M437 781L437 782L444 782L437 781z"/>
<path style="fill:#21a338; stroke:none;" d="M444 782L444 783L453 783L444 782z"/>
<path style="fill:#309538; stroke:none;" d="M453 783L453 784L463 784L453 783z"/>
<path style="fill:#13ed37; stroke:none;" d="M463 783L463 784L472 784L463 783z"/>
<path style="fill:#15eb3b; stroke:none;" d="M475 784L475 785L483 785L475 784z"/>
<path style="fill:#1ae743; stroke:none;" d="M496 785L496 786L631 786C620.258 781.492 601.682 785 590 785L496 785z"/>
<path style="fill:#ff2806; stroke:none;" d="M368 788L368 804L388 789L368 788z"/>
<path style="fill:#05aa20; stroke:none;" d="M368 804L368 931L400 931L400 788C384.292 788 380.683 797.588 368 804M633 788L633 931L736 931C736 919.497 739.375 901.791 735.397 891C731.391 880.135 715.126 869.126 707 861L659 813C650.671 804.671 642.637 794.789 633 788z"/>
<path style="fill:#ff2806; stroke:none;" d="M634 788L684 839L736 890L736 788L634 788z"/>
</svg>
